<!-- Generated by IcoMoon.io -->
<svg version="1.1" xmlns="http://www.w3.org/2000/svg" width="32" height="32" viewBox="0 0 32 32">
<title>ancora_intera</title>
<path d="M28.306 23.55c-0.025-0.012-0.050-0.025-0.069-0.031l-0.012-0.006c-1-0.444-2.087-0.563-3.156-0.344-1.625 0.331-2.956 1.387-3.656 2.887-0.031 0.063-0.056 0.125-0.081 0.188l-0.012 0.038c-0.006 0.006-0.006 0.019-0.012 0.031l-0.019 0.050c-0.012 0.025-0.019 0.050-0.031 0.081-0.006 0.012-0.012 0.031-0.012 0.044l-0.019 0.050c-0.012 0.031-0.025 0.069-0.038 0.106l-0.025 0.081c-0.012 0.038-0.025 0.075-0.038 0.113-0.006 0.031-0.019 0.056-0.025 0.087l-0.012 0.038c-0.006 0.025-0.012 0.050-0.019 0.075-0.006 0.031-0.012 0.056-0.019 0.087l-0.006 0.019c-0.006 0.031-0.012 0.063-0.019 0.094v0.012c-0.006 0.019-0.006 0.031-0.006 0.050l-0.006 0.025c-0.006 0.038-0.012 0.075-0.019 0.113 0 0.019-0.006 0.031-0.006 0.050l-0.006 0.038c-0.006 0.038-0.012 0.075-0.019 0.113l-0.006 0.038c0 0.019-0.006 0.038-0.006 0.056l-0.019 0.25c0 0.019 0 0.044 0 0.056 0 0.025 0 0.044 0 0.069v0.025c0 0.038 0 0.075 0 0.113 0 0.019 0 0.031 0 0.050 0 0.006 0 0.012 0 0.025v0.025c0 0.038 0 0.069 0.006 0.113v0.006c0 0.031 0 0.056 0.006 0.081 0 0.025 0 0.056 0.006 0.087l0.012 0.163c0 0.025 0.006 0.050 0.006 0.075 0.006 0.031 0.006 0.063 0.012 0.094 0.006 0.038 0.012 0.075 0.019 0.113v0.006c-0.025 0.006-0.056 0.019-0.081 0.025l-0.131 0.038c-0.044 0.012-0.087 0.025-0.137 0.038h-0.012c-0.038 0.012-0.081 0.025-0.119 0.031l-0.269 0.069c-0.044 0.012-0.094 0.025-0.137 0.038-0.025 0.006-0.050 0.012-0.075 0.019l-0.050 0.012c-0.044 0.012-0.094 0.019-0.137 0.031l-0.181 0.038c-0.031 0.006-0.056 0.012-0.094 0.019-0.031 0.006-0.063 0.012-0.1 0.019l-0.094 0.019c-0.025 0.006-0.050 0.012-0.075 0.012l-0.163 0.025c-0.038 0.006-0.075 0.012-0.113 0.019l-0.163 0.025c-0.025 0.006-0.044 0.006-0.069 0.012l-0.169 0.019c-0.019 0-0.038 0.006-0.056 0.006h-0.019c-0.025 0-0.044 0.006-0.069 0.006l-0.038 0.006c-0.031 0-0.063 0.006-0.094 0.006-0.044 0.006-0.094 0.006-0.144 0.012-0.025 0-0.044 0.006-0.069 0.006l-0.1 0.006c-0.031 0-0.069 0.006-0.1 0.006h-0.006c-0.019 0-0.038 0-0.056 0.006l-0.387 0.019c-0.031 0-0.063 0-0.1 0-0.019 0-0.044 0-0.063 0h-0.069c-0.038 0-0.081 0-0.119 0h-0.038c-0.025 0-0.044 0-0.069 0h-0.2c-0.038 0-0.081 0-0.119-0.006l-0.15-0.006c-0.031 0-0.063 0-0.094-0.006l-0.306-0.019c-0.012 0-0.025 0-0.044-0.006l-0.1-0.006c-0.025 0-0.056-0.006-0.081-0.006l-0.2-0.019c-0.037-0.006-0.075-0.006-0.119-0.012l-0.037-0.006c-0.031-0.006-0.069-0.006-0.1-0.012l-0.269-0.038c-0.044-0.006-0.088-0.012-0.131-0.025l-0.137-0.025c-0.012 0-0.025-0.006-0.037-0.006l-0.031-0.006c-0.019-0.006-0.044-0.006-0.063-0.012-0.025-0.006-0.050-0.006-0.075-0.012l-0.463-0.1-0.069-0.019c-0.012 0-0.025-0.006-0.037-0.006l-0.025-0.006c-0.031-0.006-0.063-0.012-0.094-0.025l-0.075-0.019c-0.031-0.006-0.063-0.019-0.1-0.025-0.031-0.006-0.063-0.019-0.088-0.025l-0.381-0.113c-0.019-0.006-0.037-0.012-0.056-0.019l-0.194-0.063c-0.025-0.006-0.050-0.012-0.075-0.025-0.037-0.012-0.081-0.025-0.119-0.044l-0.144-0.050c-0.031-0.012-0.063-0.025-0.094-0.031l7.662-16.431 3.2 1.494c0 0.012 0 0.031 0.006 0.044 0.075 0.675 0.494 1.256 1.113 1.544 0.969 0.456 2.131 0.031 2.581-0.938 0.456-0.969 0.031-2.131-0.944-2.581-0.619-0.287-1.325-0.238-1.894 0.144-0.012 0.006-0.025 0.019-0.038 0.025l-3.2-1.494 1.981-4.244c1.219 0.125 2.444-0.525 2.988-1.7 0.694-1.481 0.050-3.25-1.438-3.944-1.481-0.694-3.25-0.050-3.944 1.438-0.55 1.175-0.256 2.525 0.619 3.381l-1.981 4.244-3.2-1.494c0-0.012 0-0.031-0.006-0.044-0.075-0.675-0.494-1.256-1.113-1.544-0.969-0.45-2.131-0.031-2.581 0.944-0.45 0.969-0.031 2.131 0.938 2.581 0.619 0.287 1.325 0.238 1.894-0.137 0.012-0.006 0.025-0.019 0.037-0.025l3.2 1.494-7.644 16.419c-0.031-0.019-0.056-0.031-0.088-0.050l-0.131-0.075c-0.037-0.019-0.069-0.044-0.106-0.063-0.019-0.012-0.044-0.025-0.063-0.038l-0.169-0.106c-0.019-0.012-0.031-0.019-0.050-0.031-0.012-0.006-0.025-0.012-0.031-0.025l-0.294-0.194c-0.025-0.019-0.050-0.038-0.081-0.056s-0.063-0.044-0.094-0.063l-0.050-0.038c-0.025-0.019-0.050-0.038-0.081-0.056l-0.069-0.050c-0.012-0.012-0.025-0.019-0.037-0.031l-0.113-0.081-0.262-0.212-0.069-0.056c-0.012-0.012-0.031-0.025-0.044-0.038-0.019-0.012-0.037-0.031-0.050-0.044l-0.106-0.094c-0.031-0.031-0.069-0.056-0.106-0.087-0.019-0.019-0.037-0.031-0.056-0.050l-0.25-0.225c-0.025-0.025-0.056-0.050-0.081-0.075l-0.169-0.163c-0.012-0.012-0.025-0.025-0.037-0.038l-0.044-0.044c-0.019-0.019-0.037-0.038-0.056-0.056l-0.094-0.094c-0.019-0.019-0.037-0.044-0.063-0.063l-0.081-0.087c-0.013-0.012-0.031-0.031-0.044-0.050l-0.1-0.106c-0.019-0.025-0.037-0.044-0.063-0.069l-0.15-0.175c-0.019-0.019-0.037-0.044-0.056-0.063l-0.019-0.019c-0.025-0.031-0.050-0.056-0.075-0.094l-0.031-0.038c-0.019-0.019-0.031-0.038-0.050-0.063-0.019-0.019-0.031-0.044-0.050-0.063l-0.050-0.063c-0.025-0.031-0.050-0.063-0.069-0.094l-0.050-0.063c-0.013-0.019-0.025-0.038-0.037-0.050l-0.037-0.056c-0.013-0.019-0.025-0.031-0.037-0.050l-0.112-0.163c-0.013-0.019-0.031-0.044-0.044-0.063l-0.006-0.006c-0.025-0.038-0.050-0.075-0.081-0.119-0.025-0.031-0.044-0.063-0.063-0.094l-0.006-0.012c-0.013-0.019-0.025-0.038-0.037-0.063l-0.013-0.019c-0.006-0.012-0.019-0.025-0.025-0.038-0.025-0.038-0.050-0.075-0.069-0.106s-0.037-0.063-0.063-0.094l-0.088-0.137c-0.013-0.019-0.019-0.038-0.031-0.050l-0.106-0.181c-0.019-0.031-0.037-0.063-0.050-0.087l-0.019-0.031c-0.019-0.038-0.044-0.075-0.063-0.113-0.013-0.025-0.031-0.050-0.044-0.081l-0.088-0.163c-0.025-0.044-0.044-0.081-0.063-0.125-0.013-0.031-0.031-0.063-0.044-0.094l-0.194-0.406-0.056-0.125c-0.019-0.044-0.037-0.087-0.056-0.131l-0.050-0.125c-0.013-0.025-0.025-0.056-0.031-0.081v0c0.031-0.019 0.069-0.038 0.1-0.063 0.025-0.019 0.050-0.031 0.075-0.050 0.031-0.019 0.063-0.044 0.094-0.063l0.019-0.012c0.013-0.006 0.025-0.019 0.037-0.025l0.056-0.038c0.019-0.012 0.037-0.025 0.050-0.038 0.025-0.019 0.050-0.038 0.075-0.056l0.013-0.012c0.025-0.019 0.050-0.038 0.075-0.063l0.069-0.056c0.031-0.025 0.056-0.050 0.088-0.075l0.037-0.031c0.013-0.012 0.019-0.019 0.031-0.025 0.019-0.019 0.037-0.031 0.050-0.050l0.175-0.175c0.019-0.019 0.037-0.044 0.063-0.063 0.025-0.025 0.050-0.056 0.075-0.081l0.013-0.012c0.019-0.019 0.037-0.038 0.056-0.056l0.088-0.106c0.013-0.019 0.031-0.038 0.044-0.050 0.025-0.025 0.044-0.056 0.063-0.081l0.019-0.019c0.019-0.019 0.031-0.044 0.044-0.063 0.019-0.019 0.031-0.044 0.044-0.063l0.019-0.031c0.019-0.025 0.037-0.050 0.050-0.075 0.025-0.031 0.044-0.069 0.063-0.1l0.031-0.044c0.006-0.006 0.013-0.019 0.019-0.025 0.019-0.031 0.037-0.063 0.056-0.1l0.050-0.087c0.013-0.025 0.025-0.044 0.037-0.069l0.025-0.050c0.006-0.006 0.006-0.012 0.013-0.025l0.006-0.012c0.006-0.006 0.006-0.019 0.013-0.025 0.031-0.063 0.063-0.125 0.094-0.188 0.7-1.5 0.65-3.2-0.138-4.656-0.519-0.963-1.313-1.719-2.3-2.2-0.025-0.012-0.050-0.025-0.075-0.037l-0.256-0.119-0.119 0.256c-0.55 1.181-0.925 2.431-1.106 3.706-0.1 0.719-0.144 1.45-0.125 2.175 0.031 1.131 0.206 2.256 0.531 3.35l0.031 0.106c0.313 1.038 0.756 2.031 1.306 2.956 1.019 1.694 2.425 3.156 4.075 4.231 0.525 0.319 1.075 0.619 1.637 0.881s1.144 0.494 1.725 0.688c1.881 0.575 3.912 0.712 5.862 0.406 1.063-0.169 2.113-0.469 3.106-0.9l0.106-0.044c1.044-0.456 2.019-1.044 2.906-1.75 0.569-0.456 1.106-0.956 1.587-1.494 0.863-0.962 1.581-2.044 2.131-3.231l0.119-0.256-0.25-0.106zM13.706 9.844c-0.725-0.338-1.044-1.206-0.7-1.931 0.338-0.725 1.206-1.044 1.931-0.706 0.463 0.219 0.775 0.65 0.831 1.156 0.019 0.131 0.012 0.269-0.012 0.406-0.019 0.125-0.063 0.25-0.119 0.369s-0.125 0.231-0.213 0.331c-0.088 0.106-0.188 0.194-0.306 0.269-0.419 0.287-0.95 0.325-1.412 0.106zM26.156 12.444c0.725 0.338 1.044 1.206 0.706 1.931s-1.206 1.044-1.931 0.7c-0.462-0.213-0.775-0.644-0.831-1.156-0.012-0.137-0.012-0.269 0.012-0.406 0.019-0.125 0.063-0.25 0.113-0.369 0.056-0.119 0.125-0.231 0.212-0.331s0.188-0.194 0.3-0.269c0.425-0.275 0.956-0.319 1.419-0.1zM5.050 21.506c-0.194 0.106-0.4 0.194-0.619 0.275-0.281-1.006-0.444-2.038-0.469-3.075-0.019-0.7 0.019-1.4 0.119-2.087 0.162-1.144 0.481-2.262 0.956-3.331 0.006 0.006 0.019 0.006 0.025 0.012 0.025 0.012 0.050 0.031 0.081 0.044l0.031 0.019c0.013 0.006 0.031 0.019 0.044 0.025 0.019 0.012 0.037 0.025 0.056 0.031l0.025 0.019c0.013 0.006 0.019 0.012 0.031 0.019s0.025 0.019 0.044 0.025c0.025 0.019 0.056 0.037 0.081 0.056l0.025 0.019c0.013 0.012 0.031 0.019 0.044 0.031 0.025 0.019 0.050 0.037 0.075 0.056l0.069 0.050c0.025 0.019 0.050 0.044 0.081 0.063l0.013 0.006c0.019 0.012 0.037 0.025 0.050 0.037l0.037 0.031c0.013 0.012 0.025 0.025 0.037 0.031l0.031 0.025c0.013 0.006 0.019 0.019 0.031 0.025 0.025 0.025 0.050 0.044 0.075 0.069l0.025 0.019c0.013 0.012 0.025 0.019 0.037 0.031 0.025 0.025 0.050 0.050 0.069 0.069 0.013 0.012 0.019 0.019 0.031 0.031 0.006 0.006 0.019 0.019 0.025 0.025 0.025 0.025 0.044 0.050 0.069 0.075 0.013 0.012 0.019 0.019 0.031 0.031 0.006 0.006 0.019 0.019 0.025 0.031 0.019 0.019 0.037 0.044 0.056 0.063l0.013 0.012c0.013 0.012 0.019 0.025 0.031 0.031l0.019 0.025c0.013 0.019 0.025 0.037 0.044 0.050l0.044 0.056c0.006 0.012 0.019 0.025 0.031 0.037 0.013 0.019 0.031 0.037 0.044 0.056l0.019 0.031c0.013 0.019 0.025 0.037 0.044 0.056 0.013 0.019 0.025 0.037 0.037 0.050 0.006 0.012 0.019 0.025 0.025 0.037l0.013 0.019c0.006 0.012 0.019 0.025 0.031 0.044 0.019 0.031 0.044 0.069 0.063 0.1l0.031 0.050c0.031 0.050 0.063 0.106 0.088 0.156 0.706 1.313 0.756 2.837 0.125 4.188-0.081 0.169-0.169 0.337-0.269 0.5-0.45 0.7-1.056 1.269-1.775 1.65zM21.556 29.2c-0.169-0.8-0.125-1.625 0.131-2.394 0.063-0.181 0.131-0.356 0.206-0.525 0.631-1.35 1.825-2.294 3.288-2.594 0.056-0.012 0.119-0.025 0.175-0.031l0.069-0.006c0.038-0.006 0.075-0.012 0.119-0.019 0.012 0 0.031-0.006 0.044-0.006h0.019c0.019 0 0.031-0.006 0.050-0.006s0.044-0.006 0.063-0.006c0.025 0 0.044-0.006 0.075-0.006h0.031c0.025 0 0.050-0.006 0.075-0.006 0.012 0 0.031 0 0.044 0h0.069c0.025 0 0.044 0 0.063 0h0.038c0.012 0 0.031 0 0.044 0h0.019c0.025 0 0.056 0 0.081 0 0.012 0 0.025 0 0.038 0s0.031 0 0.044 0 0.069 0 0.1 0.006c0.012 0 0.025 0 0.038 0.006 0.012 0 0.031 0 0.044 0.006 0.031 0 0.069 0.006 0.1 0.006 0.012 0 0.031 0 0.044 0.006l0.031 0.006c0.031 0.006 0.069 0.006 0.1 0.012 0.012 0 0.025 0.006 0.044 0.006l0.038 0.006c0.019 0 0.038 0.006 0.050 0.006 0.019 0 0.031 0.006 0.050 0.006 0.019 0.006 0.044 0.006 0.063 0.012l0.019 0.006c0.031 0.006 0.063 0.012 0.094 0.019l0.087 0.025c0.031 0.006 0.056 0.012 0.087 0.025 0.019 0.006 0.031 0.006 0.050 0.012l0.025 0.006c0.031 0.006 0.063 0.019 0.1 0.031 0.012 0.006 0.031 0.006 0.044 0.012s0.025 0.006 0.031 0.012l0.031 0.012c0.019 0.006 0.044 0.012 0.063 0.025 0.012 0.006 0.031 0.012 0.050 0.019l0.038 0.012c0.031 0.012 0.056 0.019 0.087 0.031 0.006 0.006 0.019 0.006 0.025 0.012-0.512 1.044-1.163 2.012-1.938 2.869-0.462 0.519-0.975 1-1.525 1.431-0.813 0.644-1.706 1.194-2.656 1.619-0.087-0.231-0.15-0.45-0.194-0.669zM23.994 12.581c-0.087 0.113-0.156 0.231-0.219 0.363s-0.106 0.262-0.137 0.4l-3.512-1.637-8.144 17.469 0.275 0.113c0.012 0.006 0.025 0.012 0.037 0.019l0.144 0.056c0.031 0.012 0.063 0.025 0.094 0.038l0.106 0.038c0.056 0.019 0.113 0.038 0.162 0.056 0.025 0.012 0.050 0.019 0.075 0.025l0.131 0.044c0.025 0.006 0.050 0.019 0.075 0.025 0.044 0.012 0.081 0.025 0.125 0.038 0.050 0.019 0.1 0.031 0.15 0.050 0.031 0.012 0.063 0.019 0.088 0.025l0.194 0.056c0.044 0.012 0.088 0.025 0.131 0.038l0.069 0.019c0.025 0.006 0.050 0.012 0.081 0.019 0.025 0.006 0.050 0.012 0.075 0.019l0.106 0.025c0.031 0.006 0.069 0.019 0.1 0.025l0.137 0.031c0.050 0.012 0.094 0.019 0.144 0.031l0.081 0.019c0.019 0.006 0.037 0.006 0.056 0.012 0.050 0.012 0.094 0.019 0.144 0.025 0.031 0.006 0.063 0.012 0.094 0.019l0.056 0.012c0.044 0.006 0.094 0.019 0.137 0.025 0.025 0.006 0.050 0.006 0.069 0.012l0.119 0.019c0.031 0.006 0.069 0.012 0.1 0.012l0.144 0.019c0.031 0.006 0.069 0.006 0.1 0.012l0.206 0.025c0.044 0.006 0.081 0.006 0.119 0.012 0.031 0.006 0.063 0.006 0.094 0.006l0.194 0.019c0.031 0 0.069 0.006 0.1 0.006l0.081 0.006c0.038 0 0.075 0.006 0.106 0.006 0.038 0 0.081 0.006 0.119 0.006h0.038c0.044 0 0.087 0.006 0.137 0.006h0.038c0.038 0 0.075 0 0.106 0 0.050 0 0.094 0 0.144 0s0.1 0 0.144 0h0.087c0.019 0 0.038 0 0.056 0 0.044 0 0.087 0 0.131-0.006h0.094c0.019 0 0.044 0 0.063 0 0.050 0 0.1-0.006 0.15-0.006l0.144-0.006c0.050 0 0.1-0.006 0.144-0.012 0.050 0 0.094-0.006 0.144-0.012 0.025 0 0.050-0.006 0.075-0.006l0.087-0.006c0.044-0.006 0.087-0.006 0.125-0.012 0.050-0.006 0.094-0.012 0.144-0.019s0.094-0.012 0.144-0.019l0.025-0.006c0.038-0.006 0.081-0.012 0.119-0.019s0.075-0.012 0.113-0.019l0.031-0.006c0.031-0.006 0.069-0.012 0.1-0.019l0.475-0.081c0.019-0.006 0.044-0.006 0.063-0.012 0.025-0.006 0.044-0.012 0.069-0.012l0.144-0.031c0.025-0.006 0.044-0.012 0.069-0.019l0.212-0.050c0.031-0.006 0.063-0.019 0.1-0.025l0.038-0.012c0.031-0.006 0.063-0.019 0.1-0.025l0.1-0.025c0.031-0.006 0.056-0.019 0.087-0.025 0.044-0.012 0.087-0.025 0.131-0.038l0.019-0.006c0.044-0.012 0.087-0.025 0.131-0.038l0.15-0.044c0.012-0.006 0.031-0.006 0.044-0.012 0.038 0.137 0.081 0.281 0.131 0.413l-0.063 0.025c-0.044 0.019-0.087 0.031-0.131 0.050l-0.012 0.006c-0.038 0.012-0.075 0.031-0.119 0.044l-0.269 0.094c-0.031 0.012-0.063 0.019-0.094 0.031l-0.087 0.031-0.419 0.131c-0.025 0.006-0.050 0.012-0.075 0.025l-0.269 0.075c-0.031 0.006-0.069 0.019-0.1 0.025l-0.056 0.012c-0.038 0.006-0.075 0.019-0.113 0.025l-0.406 0.087-0.413 0.075-0.15 0.025c-0.025 0.006-0.050 0.006-0.069 0.012l-0.087 0.012c-0.031 0.006-0.063 0.012-0.094 0.012l-0.175 0.019c-0.038 0.006-0.069 0.006-0.106 0.012l-0.288 0.031-0.044 0.006c-0.031 0-0.056 0.006-0.087 0.006-0.044 0.006-0.087 0.006-0.131 0.012s-0.087 0.006-0.144 0.006h-0.044c-0.031 0-0.063 0.006-0.094 0.006-0.025 0-0.050 0-0.075 0.006h-0.069c-0.044 0-0.087 0-0.131 0.006-0.031 0-0.063 0-0.1 0h-0.175c-0.044 0-0.094 0-0.144 0-0.031 0-0.069 0-0.1 0h-0.031c-0.044 0-0.081 0-0.125-0.006l-0.156-0.006c-0.031 0-0.063 0-0.088-0.006h-0.050c-0.025 0-0.050-0.006-0.069-0.006h-0.019c-0.019 0-0.031 0-0.050 0h-0.019c-0.044 0-0.088-0.006-0.131-0.012l-0.063-0.006c-0.025 0-0.050-0.006-0.069-0.006l-0.144-0.012c-0.044-0.006-0.088-0.006-0.131-0.012s-0.081-0.012-0.125-0.012h-0.019c-0.025 0-0.056-0.006-0.081-0.012l-0.25-0.038c-0.025-0.006-0.050-0.006-0.075-0.012-0.050-0.006-0.1-0.019-0.15-0.025l-0.137-0.025c-0.031-0.006-0.063-0.012-0.094-0.019l-0.088-0.019c-0.025-0.006-0.056-0.012-0.081-0.012-0.050-0.012-0.1-0.019-0.156-0.031l-0.044-0.006c-0.025-0.006-0.050-0.012-0.075-0.019l-0.156-0.038c-0.012-0.006-0.025-0.006-0.037-0.012l-0.025-0.006c-0.019-0.006-0.031-0.006-0.050-0.012-0.037-0.006-0.075-0.019-0.113-0.031l-0.119-0.031c-0.012-0.006-0.025-0.006-0.044-0.012-0.037-0.012-0.081-0.025-0.125-0.038l-0.063-0.019c-0.019-0.006-0.044-0.012-0.063-0.019l-0.025-0.006c-0.088-0.025-0.181-0.056-0.269-0.081-0.225-0.075-0.469-0.163-0.719-0.256l-0.113-0.044c-0.406-0.163-0.844-0.369-1.238-0.575-0.256-0.137-0.512-0.288-0.762-0.444-0.081-0.050-0.156-0.1-0.238-0.15l-0.275-0.188c-0.012-0.012-0.031-0.019-0.044-0.031l-0.050-0.031c-0.031-0.025-0.063-0.044-0.094-0.069-0.012-0.012-0.025-0.019-0.044-0.031l-0.025-0.019c-0.006-0.006-0.019-0.012-0.025-0.019l-0.081-0.063c-0.019-0.012-0.031-0.025-0.050-0.038s-0.037-0.031-0.063-0.044l-0.056-0.044c-0.037-0.025-0.069-0.056-0.106-0.081-0.019-0.019-0.037-0.031-0.063-0.050l-0.069-0.056c-0.025-0.019-0.056-0.044-0.081-0.063l-0.119-0.1c-0.031-0.025-0.063-0.050-0.094-0.081-0.019-0.012-0.037-0.031-0.056-0.050l-0.063-0.056c-0.031-0.025-0.063-0.056-0.088-0.081l-0.019-0.019c-0.025-0.025-0.050-0.050-0.081-0.075l-0.013-0.012c-0.031-0.031-0.063-0.056-0.094-0.087s-0.063-0.063-0.094-0.094l-0.106-0.1-0.094-0.1c-0.031-0.031-0.056-0.056-0.088-0.087l-0.075-0.081c-0.013-0.012-0.025-0.025-0.031-0.038l-0.044-0.044c-0.019-0.019-0.037-0.038-0.050-0.056l-0.094-0.106c-0.031-0.038-0.063-0.069-0.094-0.106l-0.037-0.044c-0.019-0.019-0.031-0.038-0.050-0.063-0.031-0.038-0.063-0.069-0.088-0.106l-0.025-0.025c-0.019-0.019-0.031-0.038-0.050-0.056l-0.069-0.081c-0.013-0.012-0.025-0.031-0.037-0.050-0.019-0.025-0.044-0.050-0.063-0.075l-0.044-0.063c-0.019-0.025-0.044-0.050-0.063-0.081-0.013-0.019-0.031-0.038-0.044-0.056l-0.056-0.075c-0.019-0.031-0.044-0.056-0.063-0.087-0.025-0.038-0.050-0.075-0.081-0.113-0.025-0.031-0.044-0.063-0.069-0.094l-0.169-0.25c-0.025-0.038-0.050-0.075-0.075-0.113l-0.075-0.119c-0.013-0.019-0.025-0.038-0.037-0.056l-0.112-0.175c-0.025-0.038-0.044-0.075-0.069-0.113l-0.144-0.25-0.131-0.244-0.125-0.25c-0.019-0.044-0.044-0.087-0.063-0.131-0.019-0.038-0.037-0.081-0.056-0.119l-0.119-0.256c-0.019-0.038-0.031-0.075-0.050-0.113l-0.094-0.219c-0.006-0.019-0.019-0.038-0.025-0.063-0.006-0.012-0.013-0.025-0.019-0.044-0.006-0.012-0.013-0.031-0.019-0.044l-0.031-0.081c-0.013-0.031-0.025-0.056-0.037-0.094-0.013-0.025-0.019-0.056-0.031-0.081l-0.069-0.181c-0.013-0.031-0.019-0.063-0.031-0.094l-0.013-0.031v-0.006c-0.019-0.044-0.031-0.087-0.044-0.137l-0.019-0.063c0.138-0.050 0.269-0.106 0.4-0.163 0.006 0.012 0.006 0.019 0.013 0.031l0.063 0.15c0.019 0.044 0.037 0.087 0.056 0.131s0.044 0.094 0.063 0.137c0.013 0.025 0.019 0.050 0.031 0.075l0.044 0.1c0.013 0.031 0.031 0.063 0.044 0.094l0.019 0.038c0.013 0.031 0.031 0.063 0.044 0.094l0.069 0.131c0.013 0.019 0.019 0.038 0.031 0.063 0.013 0.019 0.025 0.044 0.031 0.063 0.006 0.012 0.019 0.031 0.025 0.044s0.019 0.031 0.025 0.044l0.056 0.106c0.013 0.019 0.025 0.038 0.031 0.063l0.088 0.156c0.019 0.031 0.037 0.063 0.056 0.094 0.013 0.025 0.031 0.050 0.044 0.075l0.050 0.081c0.019 0.025 0.031 0.056 0.050 0.081l0.006 0.012c0.025 0.044 0.050 0.081 0.075 0.119 0.025 0.044 0.050 0.081 0.075 0.125 0.019 0.031 0.044 0.063 0.063 0.1l0.013 0.025c0.025 0.044 0.056 0.081 0.081 0.119s0.050 0.075 0.081 0.119l0.025 0.038c0.019 0.025 0.037 0.056 0.056 0.081 0.019 0.031 0.044 0.063 0.069 0.094l0.019 0.025c0.031 0.038 0.056 0.081 0.088 0.119l0.088 0.113c0.031 0.038 0.056 0.075 0.088 0.113 0.019 0.025 0.044 0.056 0.063 0.081l0.031 0.038c0.025 0.038 0.056 0.069 0.081 0.1 0.019 0.025 0.037 0.050 0.063 0.075l0.031 0.044c0.031 0.038 0.063 0.075 0.088 0.106 0.031 0.038 0.063 0.075 0.094 0.106 0.019 0.025 0.037 0.044 0.056 0.069l0.037 0.044c0.025 0.025 0.044 0.050 0.069 0.075l0.050 0.050c0.025 0.031 0.050 0.056 0.075 0.087 0.025 0.025 0.050 0.056 0.075 0.081l0.025 0.025c0.031 0.031 0.063 0.069 0.1 0.1l0.2 0.2c0.031 0.031 0.069 0.063 0.1 0.1l0.144 0.137c0.025 0.025 0.050 0.044 0.075 0.069l0.106 0.094c0.025 0.025 0.050 0.044 0.075 0.069l0.069 0.063c0.025 0.019 0.050 0.044 0.069 0.063 0.037 0.031 0.069 0.063 0.113 0.094l0.037 0.031c0.025 0.019 0.050 0.044 0.075 0.063 0.037 0.031 0.075 0.063 0.113 0.094l0.113 0.087c0.037 0.031 0.075 0.063 0.119 0.087 0.037 0.031 0.075 0.056 0.113 0.087 0.025 0.019 0.056 0.044 0.081 0.063l0.088 0.063c0.019 0.012 0.044 0.031 0.063 0.050l0.006 0.006c0.019 0.012 0.037 0.025 0.056 0.038l0.063 0.044c0.037 0.025 0.075 0.056 0.113 0.081l0.162 0.113c0.025 0.019 0.050 0.038 0.075 0.050 0.037 0.025 0.075 0.044 0.106 0.069l0.044 0.025c0.031 0.019 0.063 0.044 0.094 0.063 0.019 0.012 0.044 0.025 0.063 0.038l0.119 0.075c0.025 0.012 0.044 0.031 0.069 0.044 0.056 0.031 0.106 0.063 0.162 0.094l0.088 0.050c0.088 0.050 0.169 0.094 0.256 0.144l0.262 0.137 8.169-17.462-3.512-1.637c0.088-0.113 0.156-0.231 0.219-0.356 0.063-0.131 0.106-0.262 0.137-0.4l3.512 1.637 2.156-4.631c0.113 0.075 0.238 0.144 0.369 0.206s0.262 0.106 0.394 0.15l-2.156 4.631 3.5 1.631zM21.262 2.425c0.575-1.238 2.056-1.775 3.294-1.2s1.775 2.056 1.2 3.294c-0.575 1.237-2.056 1.775-3.294 1.2s-1.781-2.056-1.2-3.294zM25.15 14.594c0.462 0.213 1.012 0.012 1.225-0.444 0.212-0.463 0.012-1.012-0.444-1.225s-1.012-0.012-1.225 0.444c-0.219 0.463-0.019 1.012 0.444 1.225zM25.719 13.369c0.212 0.1 0.306 0.356 0.206 0.575s-0.356 0.306-0.575 0.206c-0.212-0.1-0.306-0.356-0.206-0.575s0.363-0.306 0.575-0.206zM14.706 7.694c-0.463-0.213-1.012-0.013-1.225 0.444-0.213 0.463-0.012 1.012 0.444 1.225 0.463 0.213 1.012 0.012 1.225-0.444 0.219-0.463 0.019-1.013-0.444-1.225zM14.137 8.919c-0.213-0.1-0.306-0.356-0.206-0.575s0.356-0.306 0.575-0.206c0.213 0.1 0.306 0.356 0.206 0.575-0.1 0.213-0.363 0.306-0.575 0.206zM25.269 4.294c0.45-0.969 0.031-2.131-0.938-2.581s-2.131-0.031-2.581 0.938c-0.45 0.969-0.031 2.131 0.938 2.581 0.969 0.456 2.131 0.037 2.581-0.938zM22.188 2.856c0.337-0.725 1.206-1.044 1.931-0.706s1.044 1.206 0.706 1.931-1.206 1.044-1.931 0.706c-0.725-0.338-1.044-1.2-0.706-1.931z"></path>
</svg>
