<!-- Generated by IcoMoon.io -->
<svg version="1.1" xmlns="http://www.w3.org/2000/svg" width="32" height="32" viewBox="0 0 32 32">
<title>behance</title>
<path d="M1.606 16c0-7.955 6.458-14.413 14.406-14.4 7.942 0.013 14.374 6.451 14.374 14.4 0 7.955-6.464 14.419-14.406 14.4s-14.368-6.458-14.374-14.4zM14.464 15.232c0.173-0.070 0.269-0.115 0.365-0.154 0.467-0.192 0.819-0.512 1.037-0.966 0.672-1.395 0.019-3.29-1.363-3.974-0.595-0.294-1.222-0.39-1.882-0.384-1.939 0.006-3.885 0-5.824 0-0.102 0-0.211 0.013-0.32 0.013 0 4 0 7.974 0 11.974 0.102 0.006 0.186 0.013 0.269 0.013 2.003 0 4.013 0.006 6.016-0.006 0.288 0 0.582-0.026 0.864-0.083 1.408-0.288 2.445-1.011 2.784-2.49 0.186-0.813 0.16-1.632-0.102-2.426-0.275-0.851-0.826-1.402-1.843-1.517zM25.722 18.829c-0.717 0-1.395 0-2.093 0-0.090 0.691-0.525 1.050-1.158 1.184-0.333 0.070-0.685 0.109-1.024 0.083-1.19-0.083-1.978-0.973-1.83-2.080 0.122 0 0.25 0 0.371 0 1.837 0 3.667-0.006 5.504 0.006 0.256 0 0.358-0.077 0.339-0.326-0.038-0.538-0.026-1.082-0.128-1.606-0.301-1.574-1.126-2.726-2.752-3.123-0.55-0.134-1.133-0.173-1.696-0.147-1.53 0.064-2.778 0.685-3.546 2.067-0.742 1.344-0.915 2.771-0.461 4.25 0.39 1.267 1.203 2.15 2.47 2.586 0.915 0.314 1.862 0.346 2.816 0.243 0.659-0.070 1.293-0.25 1.862-0.602 0.909-0.582 1.318-1.434 1.325-2.534zM23.968 10.483c-1.632 0-3.27 0-4.902 0 0 0.486 0 0.954 0 1.427 1.645 0 3.264 0 4.902 0 0-0.48 0-0.941 0-1.427zM9.229 16.422c1.216 0 2.413-0.026 3.603 0.013 0.506 0.013 0.845 0.358 1.011 0.832 0.166 0.467 0.179 0.947 0.045 1.427-0.141 0.506-0.493 0.864-1.005 0.877-1.21 0.045-2.426 0.013-3.661 0.013 0.006-1.043 0.006-2.080 0.006-3.162zM9.222 14.541c0-0.902 0-1.76 0-2.656 0.294 0 0.57 0 0.845 0 0.819 0 1.638 0 2.458 0 0.563 0 0.915 0.256 0.979 0.813 0.051 0.397 0.013 0.819-0.058 1.216-0.058 0.358-0.32 0.614-0.691 0.621-1.165 0.019-2.336 0.006-3.533 0.006zM23.482 16.397c-1.306 0-2.598 0-3.885 0 0.013-0.979 0.96-1.83 2.042-1.843 1.094-0.013 1.798 0.672 1.843 1.843z"></path>
</svg>
