<!-- Generated by IcoMoon.io -->
<svg version="1.1" xmlns="http://www.w3.org/2000/svg" width="32" height="32" viewBox="0 0 32 32">
<title>favicon</title>
<path d="M29.836 15.294c-1.62 0-3.23 0.782-4.307 2.098-1.062 1.295-1.488 3.068-1.148 4.739 0.081 0.416 0.213 0.813 0.386 1.194 0.102 0.224 0.218 0.427 0.34 0.604 0.015 0.030 0.036 0.056 0.056 0.091s0.046 0.071 0.071 0.102l0.015 0.025c-0.137 0.33-2.753 1.915-3.19 2.133-1.336 0.665-2.819 1.107-4.526 1.351l-0.452 0.046v-7.746l0.163-0.015c1.3-0.188 2.555-0.655 3.606-1.351 0.198-0.127 0.391-0.264 0.584-0.411 0.772-0.589 1.448-1.31 2.001-2.133 0.371-0.549 0.655-1.097 0.863-1.63 0.056-0.142 0.112-0.295 0.168-0.467 0.081-0.249 0.112-0.498 0.102-0.757-0.005-0.213-0.102-0.401-0.188-0.589-0.015-0.041-0.041-0.076-0.056-0.117-0.157-0.34-0.34-0.67-0.513-0.99-0.122-0.223-0.244-0.442-0.356-0.67l-0.030-0.056c-0.416-0.823-0.813-1.697-1.209-2.682-0.071-0.168-0.132-0.33-0.198-0.503l-0.015-0.046c-0.005-0.117-0.071-0.244-0.127-0.361-0.025-0.051-0.046-0.102-0.061-0.142-0.076-0.198-0.142-0.396-0.213-0.594-0.183-0.538-0.361-1.087-0.528-1.651l-0.005-0.025c-0.036-0.127-0.071-0.249-0.112-0.391l-0.071-0.259c-0.036-0.117-0.061-0.239-0.091-0.35-0.015-0.071-0.046-0.178-0.117-0.274s-0.168-0.157-0.239-0.188l-0.025-0.015c-0.127-0.076-0.254-0.137-0.376-0.198l-0.117-0.056c-0.051-0.030-0.112-0.051-0.163-0.076-0.635-0.295-1.3-0.518-1.996-0.655-1.727-0.35-3.581-0.168-5.211 0.513-0.356 0.152-0.681 0.29-0.996 0.477-0.071 0.041-0.168 0.096-0.239 0.198-0.122 0.163-0.173 0.396-0.213 0.604-0.015 0.076-0.036 0.152-0.051 0.218-0.081 0.295-0.168 0.589-0.254 0.879-0.503 1.63-1.102 3.19-1.778 4.627-0.35 0.736-0.67 1.377-0.98 1.95l-0.025 0.041c-0.076 0.142-0.157 0.284-0.239 0.427l-0.030 0.051c-0.112 0.198-0.223 0.401-0.29 0.635-0.086 0.3-0.061 0.635 0.056 1.021 0.046 0.152 0.096 0.295 0.157 0.432 0.213 0.549 0.508 1.107 0.884 1.666 0.889 1.331 2.154 2.418 3.667 3.149 0.742 0.356 1.59 0.599 2.682 0.767l0.005 7.746-0.071-0.005-0.117-0.010c-1.63-0.163-3.246-0.64-4.8-1.412-1.016-0.503-1.94-1.107-2.768-1.803-0.030-0.030-0.061-0.056-0.102-0.091l-0.269-0.244c0.010-0.015 0.025-0.036 0.036-0.051l0.015-0.030c0.726-1.123 1.031-2.484 0.848-3.83-0.010-0.102-0.030-0.208-0.051-0.305-0.102-0.549-0.29-1.072-0.543-1.564-0.041-0.081-0.086-0.163-0.127-0.229-0.254-0.427-0.559-0.818-0.909-1.163-0.061-0.056-0.122-0.117-0.183-0.173-0.132-0.122-0.269-0.229-0.417-0.34-0.254-0.188-0.523-0.356-0.797-0.498-0.081-0.041-0.163-0.081-0.239-0.117-0.711-0.325-1.468-0.498-2.265-0.508h-0.422v0.335c0 3.373 1.331 6.898 3.556 9.432l0.081 0.091c2.662 3.032 6.649 4.744 10.697 4.744 1.031 0 2.067-0.112 3.088-0.34 4.46-0.996 8.432-4.389 10.118-8.63 0.66-1.656 1.006-3.484 1.006-5.293v-0.335h-0.437v-0.015z"></path>
</svg>
