<!-- Generated by IcoMoon.io -->
<svg version="1.1" xmlns="http://www.w3.org/2000/svg" width="32" height="32" viewBox="0 0 32 32">
<title>hamburger</title>
<path d="M30.381 28.563h-28.762c-0.656 0-1.188-0.531-1.188-1.188s0.531-1.188 1.188-1.188h28.762c0.656 0 1.188 0.531 1.188 1.188s-0.531 1.188-1.188 1.188zM30.381 17.188h-28.762c-0.656 0-1.188-0.531-1.188-1.188s0.531-1.188 1.188-1.188h28.762c0.656 0 1.188 0.531 1.188 1.188s-0.531 1.188-1.188 1.188zM30.381 5.813h-28.762c-0.656 0-1.188-0.531-1.188-1.188s0.531-1.188 1.188-1.188h28.762c0.656 0 1.188 0.531 1.188 1.188s-0.531 1.188-1.188 1.188z"></path>
</svg>
