<!-- Generated by IcoMoon.io -->
<svg version="1.1" xmlns="http://www.w3.org/2000/svg" width="32" height="32" viewBox="0 0 32 32">
<title>instagram</title>
<path d="M15.994 1.6c7.962 0 14.413 6.458 14.406 14.406-0.006 7.955-6.451 14.4-14.4 14.394-7.955-0.006-14.4-6.445-14.4-14.4 0-7.949 6.445-14.4 14.394-14.4zM15.974 24.653c0 0.006 0 0.019 0 0.026 0.845 0 1.696 0.006 2.541 0 0.774-0.013 1.555-0.013 2.317-0.186 1.958-0.435 3.187-1.626 3.648-3.584 0.192-0.806 0.198-1.626 0.205-2.445 0.013-1.658 0.013-3.315 0-4.973-0.006-0.787-0.013-1.581-0.186-2.355-0.41-1.856-1.51-3.072-3.354-3.59-0.742-0.211-1.504-0.25-2.266-0.25-1.933-0.013-3.866-0.013-5.798 0-0.659 0.006-1.318 0.032-1.971 0.179-1.811 0.41-3.008 1.478-3.546 3.27-0.218 0.736-0.256 1.498-0.275 2.259-0.038 2.189-0.058 4.378 0.026 6.566 0.019 0.544 0.090 1.088 0.237 1.613 0.39 1.382 1.229 2.394 2.554 2.982 0.8 0.358 1.651 0.474 2.515 0.48 1.12 0.019 2.234 0.006 3.354 0.006zM15.987 8.806c1.216 0.026 2.426 0.045 3.642 0.083 0.653 0.019 1.286 0.141 1.869 0.461 0.8 0.448 1.261 1.146 1.459 2.029 0.115 0.512 0.154 1.037 0.154 1.555 0.006 2.035 0.006 4.070 0 6.099 0 0.57-0.038 1.146-0.186 1.696-0.346 1.267-1.184 2.003-2.458 2.24-0.448 0.083-0.909 0.122-1.357 0.128-2.080 0.013-4.154 0.013-6.234 0-0.55 0-1.101-0.038-1.632-0.186-1.254-0.346-1.984-1.178-2.24-2.438-0.147-0.723-0.147-1.466-0.154-2.195-0.006-1.792 0.006-3.578 0.019-5.37 0.006-0.57 0.038-1.146 0.192-1.696 0.346-1.248 1.178-1.971 2.432-2.221 0.794-0.16 1.594-0.141 2.4-0.154 0.698-0.013 1.402 0 2.099 0-0.006-0.013-0.006-0.019-0.006-0.032zM11.514 15.974c0 2.47 1.99 4.474 4.448 4.48 2.483 0.006 4.486-1.984 4.493-4.461s-1.984-4.474-4.474-4.48c-2.458-0.006-4.461 1.997-4.467 4.461zM20.608 12.384c0.576 0.013 1.050-0.448 1.062-1.030 0.013-0.557-0.454-1.037-1.018-1.056-0.582-0.013-1.056 0.442-1.075 1.018-0.013 0.576 0.448 1.056 1.030 1.069zM13.069 15.981c0.006-1.613 1.318-2.918 2.925-2.912s2.906 1.312 2.899 2.918c-0.006 1.619-1.306 2.912-2.918 2.906-1.606-0.006-2.906-1.312-2.906-2.912z"></path>
</svg>
