<!-- Generated by IcoMoon.io -->
<svg version="1.1" xmlns="http://www.w3.org/2000/svg" width="32" height="32" viewBox="0 0 32 32">
<title>logo</title>
<path d="M31 15.238c-1.756 0-3.5 0.85-4.669 2.275-1.15 1.406-1.613 3.325-1.244 5.137 0.087 0.45 0.231 0.881 0.419 1.294 0.113 0.244 0.238 0.462 0.369 0.656 0.019 0.031 0.038 0.063 0.063 0.1s0.050 0.075 0.075 0.113l0.019 0.025c-0.15 0.356-2.988 2.075-3.456 2.313-1.45 0.719-3.056 1.2-4.906 1.462l-0.488 0.050v-8.4l0.175-0.019c1.413-0.206 2.769-0.712 3.913-1.462 0.212-0.137 0.425-0.288 0.631-0.444 0.837-0.637 1.569-1.419 2.169-2.313 0.4-0.594 0.712-1.188 0.938-1.769 0.063-0.156 0.119-0.319 0.181-0.506 0.087-0.269 0.119-0.537 0.113-0.819-0.006-0.231-0.113-0.438-0.206-0.637-0.019-0.044-0.044-0.081-0.063-0.125-0.169-0.369-0.369-0.725-0.556-1.075-0.131-0.244-0.262-0.481-0.387-0.725l-0.031-0.063c-0.45-0.894-0.881-1.838-1.313-2.906-0.075-0.181-0.144-0.356-0.212-0.544l-0.019-0.050c-0.006-0.125-0.075-0.263-0.137-0.394-0.025-0.056-0.050-0.112-0.069-0.156-0.081-0.213-0.156-0.431-0.231-0.644-0.2-0.581-0.394-1.181-0.575-1.788l-0.006-0.025c-0.038-0.138-0.075-0.269-0.119-0.425l-0.075-0.281c-0.038-0.125-0.069-0.256-0.1-0.381-0.019-0.075-0.050-0.194-0.125-0.3s-0.181-0.169-0.256-0.206l-0.025-0.019c-0.137-0.081-0.275-0.15-0.406-0.212l-0.125-0.063c-0.056-0.031-0.119-0.056-0.175-0.081-0.688-0.319-1.413-0.563-2.163-0.713-1.875-0.381-3.881-0.181-5.65 0.556-0.387 0.163-0.738 0.313-1.081 0.519-0.075 0.044-0.181 0.106-0.256 0.212-0.131 0.175-0.188 0.431-0.231 0.656-0.019 0.081-0.037 0.163-0.056 0.237-0.088 0.319-0.181 0.637-0.275 0.95-0.544 1.769-1.194 3.456-1.925 5.019-0.381 0.8-0.725 1.494-1.063 2.113l-0.025 0.044c-0.081 0.156-0.169 0.306-0.256 0.463l-0.031 0.056c-0.119 0.213-0.244 0.438-0.313 0.688-0.094 0.325-0.069 0.688 0.063 1.106 0.050 0.162 0.106 0.319 0.169 0.469 0.231 0.594 0.55 1.2 0.956 1.806 0.963 1.444 2.338 2.619 3.975 3.413 0.806 0.387 1.725 0.65 2.906 0.831l0.006 8.4-0.075-0.006-0.125-0.012c-1.769-0.175-3.519-0.694-5.206-1.531-1.1-0.544-2.106-1.2-3-1.956-0.031-0.031-0.069-0.063-0.112-0.1l-0.294-0.262c0.013-0.019 0.025-0.038 0.037-0.056l0.019-0.031c0.787-1.219 1.119-2.694 0.919-4.15-0.013-0.113-0.031-0.225-0.056-0.331-0.112-0.594-0.313-1.163-0.588-1.694-0.044-0.087-0.094-0.175-0.138-0.25-0.275-0.462-0.606-0.887-0.987-1.262-0.069-0.063-0.131-0.125-0.2-0.188-0.144-0.131-0.294-0.25-0.45-0.369-0.275-0.206-0.569-0.387-0.862-0.537-0.087-0.044-0.175-0.088-0.256-0.125-0.769-0.35-1.594-0.537-2.456-0.55h-0.481v0.363c0 3.656 1.444 7.481 3.856 10.225l0.088 0.1c2.888 3.288 7.206 5.144 11.6 5.144 1.119 0 2.244-0.119 3.35-0.369 4.838-1.081 9.144-4.756 10.969-9.356 0.712-1.794 1.087-3.775 1.087-5.738v-0.363h-0.475zM17.325 2.469c0.050-0.019 0.1-0.038 0.15-0.056 0.038-0.013 0.069-0.025 0.106-0.038l0.038-0.013c0.050-0.013 0.1-0.025 0.15-0.038s0.1-0.025 0.15-0.031c0.050-0.006 0.106-0.019 0.156-0.025s0.1-0.013 0.156-0.019c0.050-0.006 0.1-0.006 0.156-0.013 0.044 0 0.087 0 0.131 0v0c0.456 0 0.913 0.1 1.325 0.288-0.613 0.212-1.219 0.456-1.794 0.738l-0.006-0.006c-0.012-0.019-0.025-0.031-0.031-0.044-0.031-0.044-0.063-0.081-0.1-0.112-0.031-0.038-0.069-0.075-0.106-0.112-0.031-0.031-0.063-0.056-0.094-0.087l-0.019-0.019c-0.038-0.031-0.075-0.063-0.113-0.094s-0.081-0.063-0.119-0.087c-0.044-0.031-0.087-0.056-0.131-0.081s-0.087-0.050-0.131-0.075l-0.025-0.013h-0.006c0.006 0 0.012-0.006 0.012-0.006 0.050-0.019 0.1-0.038 0.144-0.056zM17.387 3.612l-1.387 0.862-1.387-0.862c0.294-0.331 0.688-0.55 1.131-0.612 0.162-0.025 0.344-0.025 0.519 0 0.425 0.063 0.831 0.281 1.125 0.612zM17.181 1.738c-0.344 0.125-0.675 0.3-0.975 0.519-0.069-0.006-0.131-0.006-0.213-0.006h-0.031c-0.056 0-0.113 0-0.169 0.006-0.3-0.219-0.625-0.394-0.975-0.519 0.775-0.1 1.587-0.1 2.363 0zM12.175 2.519c0.412-0.188 0.85-0.281 1.313-0.281 0.469 0 0.925 0.1 1.344 0.294-0.344 0.175-0.644 0.425-0.881 0.731-0.456-0.225-0.925-0.425-1.387-0.594l-0.094-0.038c-0.106-0.044-0.213-0.081-0.306-0.112h0.012zM7.75 14.213c-0.037-0.081-0.075-0.169-0.112-0.256-0.15-0.375-0.206-0.675-0.175-0.95 0.037-0.363 0.231-0.719 0.425-1.063s0.394-0.725 0.612-1.15c0.194-0.375 0.387-0.769 0.581-1.181 0.181-0.394 0.363-0.794 0.537-1.2 0.2-0.469 0.356-0.856 0.5-1.213 0.169-0.438 0.319-0.844 0.456-1.231 0.15-0.419 0.287-0.844 0.412-1.25 0.131-0.412 0.256-0.837 0.375-1.263l0.012-0.056c0.044-0.156 0.069-0.25 0.088-0.313 1.387 0.431 2.694 1.056 3.9 1.85-0.119 0.094-0.238 0.188-0.356 0.281l-0.044 0.037c-0.088 0.075-0.169 0.144-0.262 0.219l-0.169 0.15c-0.081 0.069-0.156 0.144-0.238 0.219-0.244 0.231-0.475 0.456-0.675 0.669l-0.15 0.156c-0.056 0.063-0.113 0.119-0.169 0.181-0.044 0.050-0.094 0.106-0.131 0.15-0.056 0.063-0.113 0.125-0.162 0.188-0.050 0.056-0.094 0.106-0.131 0.156-0.056 0.069-0.113 0.138-0.175 0.219-0.056 0.069-0.106 0.131-0.156 0.206-0.050 0.069-0.106 0.144-0.162 0.213-0.031 0.038-0.056 0.075-0.081 0.112l-0.069 0.094c-0.088 0.119-0.169 0.238-0.244 0.35l-0.019 0.025c-0.031 0.044-0.056 0.088-0.088 0.131l-0.050 0.081c-0.037 0.056-0.075 0.119-0.113 0.175l-0.113 0.181c-0.025 0.044-0.050 0.088-0.075 0.125l-0.037 0.056c-0.012 0.019-0.019 0.031-0.025 0.044s-0.019 0.025-0.025 0.044c-0.025 0.044-0.050 0.088-0.075 0.131l-0.031 0.063c-0.113 0.2-0.231 0.412-0.338 0.631l-0.025 0.050c-0.025 0.056-0.056 0.113-0.081 0.169-0.031 0.069-0.063 0.137-0.106 0.225l-0.1 0.225c-0.044 0.094-0.081 0.188-0.119 0.281-0.113 0.269-0.225 0.556-0.331 0.85-0.012 0.037-0.025 0.069-0.037 0.094l-0.031 0.094c-0.012 0.037-0.025 0.075-0.037 0.113-0.188 0.588-0.281 1.188-0.281 1.781 0 0.025 0 0.050 0 0.075 0 0.975 0.225 1.906 0.662 2.775l0.094 0.175c0.031 0.063 0.069 0.119 0.1 0.175 0.075 0.125 0.15 0.244 0.219 0.344l0.031 0.050c0.056 0.081 0.119 0.163 0.181 0.244 0.119 0.15 0.231 0.281 0.331 0.394 0.019 0.019 0.037 0.038 0.050 0.056-1.644-0.969-2.975-2.444-3.769-4.181zM12.912 18.606c-0.113-0.075-0.219-0.156-0.325-0.238-0.1-0.081-0.2-0.169-0.306-0.269-0.088-0.081-0.181-0.175-0.281-0.288s-0.188-0.212-0.262-0.306c-0.081-0.1-0.156-0.206-0.238-0.325-0.081-0.125-0.15-0.238-0.213-0.344-0.069-0.119-0.131-0.238-0.188-0.356-0.056-0.125-0.113-0.244-0.156-0.375-0.050-0.125-0.094-0.256-0.131-0.381-0.044-0.144-0.075-0.269-0.106-0.394-0.031-0.131-0.056-0.262-0.075-0.394s-0.031-0.262-0.044-0.394c-0.012-0.394 0.012-0.769 0.063-1.113 0.044-0.269 0.119-0.525 0.2-0.794l0.037-0.113c0.044-0.137 0.088-0.281 0.137-0.419 0.044-0.137 0.094-0.275 0.15-0.412 0.050-0.137 0.106-0.275 0.162-0.412s0.113-0.269 0.175-0.406c0.063-0.137 0.125-0.269 0.188-0.4 0.069-0.131 0.131-0.262 0.206-0.394 0.069-0.131 0.144-0.256 0.219-0.387 0.075-0.125 0.15-0.25 0.231-0.381 0.075-0.125 0.156-0.25 0.238-0.369 0.081-0.125 0.169-0.244 0.256-0.363 0.081-0.119 0.175-0.238 0.262-0.356s0.181-0.231 0.275-0.344 0.188-0.225 0.287-0.338 0.194-0.219 0.294-0.325l0.025-0.025c0.65-0.688 1.381-1.325 2.162-1.881 1.319-0.944 2.794-1.688 4.381-2.212 0.806 3.050 1.988 5.994 3.525 8.756l0.019 0.031c0.2 0.363 0.406 0.738 0.444 1.137 0.025 0.287-0.031 0.6-0.181 0.975-0.038 0.094-0.081 0.188-0.119 0.275-0.975 2.1-2.756 3.813-4.894 4.694-1.45 0.6-3.012 0.769-4.412 0.475-0.744-0.156-1.419-0.438-2.006-0.837zM1.363 17.363l-0.006-0.056c-0.019-0.156-0.031-0.313-0.044-0.469l-0.006-0.063c-0.012-0.156-0.019-0.313-0.031-0.475l-0.012-0.313 0.063 0.006c0.031 0 0.063 0 0.1 0.006 0.019 0 0.031 0.006 0.069 0.006l0.038 0.006c0.031 0 0.063 0.006 0.1 0.012l0.419 0.075c0.013 0 0.025 0.006 0.038 0.006l0.094 0.019c0.013 0.006 0.025 0.006 0.063 0.019l0.4 0.119c0.031 0.012 0.063 0.025 0.106 0.038l-1.337 1.444c-0.019-0.125-0.038-0.256-0.050-0.381zM1.756 19.431l-0.006-0.031c-0.044-0.163-0.081-0.325-0.125-0.488l-0.006-0.025c-0.019-0.081-0.038-0.156-0.050-0.238l1.881-2.031 0.087 0.050c0.019 0.006 0.031 0.019 0.050 0.025 0.031 0.019 0.069 0.038 0.106 0.063l0.075 0.050c0.038 0.025 0.075 0.044 0.112 0.075l0.081 0.056c0.050 0.038 0.106 0.075 0.15 0.106 0.075 0.056 0.15 0.113 0.219 0.175l-2.456 2.65c-0.038-0.156-0.081-0.3-0.119-0.438zM2.144 20.656l2.725-2.938c0.244 0.262 0.463 0.55 0.644 0.85l-2.931 3.163c-0.156-0.356-0.306-0.712-0.438-1.075zM2.931 22.431l2.944-3.175c0.162 0.381 0.275 0.775 0.344 1.175l-2.744 2.956c-0.2-0.319-0.381-0.644-0.544-0.956zM4.769 25.156c-0.306-0.363-0.6-0.744-0.875-1.131l2.406-2.594c0 0.356-0.037 0.706-0.106 1.044-0.156 0.775-0.481 1.5-0.969 2.156-0.138 0.175-0.294 0.35-0.456 0.525zM26.712 25.744v0c-0.744 0.988-2.012 1.944-3.881 2.919-1.881 0.981-3.969 1.563-6.031 1.669-4.194 0.244-8.45-1.438-11.4-4.481-0.037-0.038-0.075-0.075-0.112-0.113l-0.031-0.031c0.106-0.106 0.206-0.212 0.3-0.325l0.144 0.131c2.444 2.325 6.088 3.794 9.75 3.925h0.094v-0.119c-0.006-0.2-0.012-4.731 0-6.669 0-0.544 0.006-0.938 0.006-1.056v-1.262c0.331 0.012 0.625 0.019 0.906 0v9.094h0.031c0.169 0.081 2.563-0.306 2.587-0.313 0.894-0.188 1.775-0.444 2.613-0.775 1.756-0.688 3.306-1.631 4.488-2.719 0.038-0.031 0.075-0.063 0.125-0.106 0 0 0.081-0.069 0.144-0.131 0.056 0.069 0.15 0.163 0.3 0.319-0.012 0.012-0.025 0.031-0.031 0.044zM27.231 25.156c-0.163-0.169-0.313-0.344-0.462-0.538-0.481-0.644-0.806-1.369-0.962-2.15-0.069-0.337-0.106-0.688-0.106-1.044l2.406 2.594c-0.275 0.394-0.569 0.775-0.875 1.137zM28.519 23.394l-2.738-2.956c0.069-0.406 0.188-0.806 0.344-1.175l2.944 3.175c-0.169 0.319-0.356 0.644-0.55 0.956zM29.413 21.731l-2.931-3.163c0.188-0.306 0.4-0.587 0.644-0.85l2.725 2.938c-0.125 0.363-0.275 0.719-0.438 1.075zM30.381 18.881l-0.012 0.038c-0.038 0.163-0.075 0.325-0.119 0.475l-0.006 0.025c-0.038 0.15-0.081 0.3-0.125 0.444l-2.456-2.65c0.069-0.056 0.144-0.113 0.219-0.169l0.175-0.125 0.012-0.012 0.012-0.006 0.038-0.025c0.038-0.025 0.075-0.050 0.106-0.075l0.081-0.050c0.031-0.019 0.069-0.044 0.113-0.069 0.012-0.006 0.025-0.012 0.044-0.025l0.081-0.044 1.881 2.031-0.044 0.238zM30.731 16.238v0c0 0.019 0 0.025 0 0.038v0.025c-0.006 0.156-0.019 0.313-0.025 0.469l-0.006 0.081c-0.012 0.15-0.025 0.3-0.050 0.481l-0.006 0.056c-0.012 0.119-0.031 0.238-0.044 0.356l-1.35-1.444h0.006c0.031-0.012 0.063-0.025 0.094-0.031l0.313-0.094 0.038-0.012c0.019-0.006 0.031-0.006 0.056-0.012l0.406-0.087 0.113-0.019c0.031-0.006 0.056-0.012 0.094-0.012 0.031-0.006 0.063-0.006 0.094-0.012l0.056-0.006c0.019 0 0.038-0.006 0.063-0.006 0.031-0.006 0.063-0.006 0.1-0.006l0.063-0.006c-0.006 0.075-0.012 0.156-0.012 0.244z"></path>
</svg>
