<!-- Generated by IcoMoon.io -->
<svg version="1.1" xmlns="http://www.w3.org/2000/svg" width="32" height="32" viewBox="0 0 32 32">
<title>rosa</title>
<path d="M26.431 18.994l-0.069-0.119h-0.137c-2.012-0.025-3.9 1.038-4.925 2.762-0.637 1.069-0.887 2.306-0.756 3.506l-2.275-4.881 1.156-2-2.275-0.406-0.725-1.563c0.031-0.019 0.069-0.044 0.106-0.063 0.044-0.025 0.081-0.050 0.094-0.056 0.094-0.063 0.188-0.125 0.281-0.194 0.188-0.131 0.369-0.269 0.538-0.412s0.337-0.294 0.5-0.45 0.313-0.319 0.462-0.488c0.144-0.169 0.288-0.344 0.425-0.525 0.131-0.181 0.262-0.369 0.381-0.556 0.119-0.194 0.231-0.394 0.337-0.594 0.125-0.238 0.231-0.475 0.331-0.706 0.087-0.219 0.169-0.431 0.238-0.65 0.031-0.094 0.056-0.194 0.087-0.294 0.094-0.325 0.163-0.662 0.219-1.006 0.094-0.619 0.125-1.206 0.094-1.762-0.006-0.162-0.025-0.319-0.044-0.469-0.050-0.369-0.163-0.656-0.35-0.875-0.15-0.175-0.331-0.306-0.512-0.431l-0.031-0.025c-0.137-0.1-0.275-0.2-0.413-0.306-0.281-0.206-0.563-0.419-0.825-0.625l-0.044-0.037c-0.125-0.1-0.25-0.2-0.375-0.3l-0.119-0.094c-0.1-0.081-0.2-0.162-0.294-0.244l-0.050-0.044c-0.025-0.019-0.050-0.044-0.075-0.063-0.125-0.106-0.244-0.213-0.369-0.319-0.1-0.081-0.194-0.169-0.288-0.256l-0.212-0.194c-0.119-0.106-0.238-0.213-0.363-0.337l-0.012-0.013c-0.125-0.119-0.25-0.237-0.375-0.356l-0.044-0.044c-0.119-0.112-0.238-0.231-0.35-0.344l-0.031-0.031c-0.012-0.013-0.025-0.025-0.037-0.038-0.119-0.119-0.231-0.231-0.35-0.35l-0.081-0.087c-0.1-0.106-0.2-0.206-0.3-0.319l-0.050-0.056c-0.113-0.119-0.219-0.237-0.344-0.369l-0.050-0.056c-0.113-0.125-0.225-0.244-0.331-0.369l-0.019-0.019c-0.088-0.1-0.175-0.2-0.256-0.3l-0.169-0.194c-0.075-0.088-0.15-0.181-0.225-0.269-0.050-0.056-0.106-0.125-0.188-0.175-0.088-0.044-0.181-0.056-0.256-0.063l-0.019-0.006c-0.137-0.013-0.269-0.013-0.4-0.019h-0.131c-0.056 0-0.113 0-0.162 0-0.675 0-1.344 0.081-1.994 0.237-0.544 0.131-1.081 0.319-1.6 0.563l-0.113 0.050c-0.037 0.019-0.075 0.038-0.113 0.056s-0.075 0.038-0.113 0.056-0.075 0.038-0.106 0.056c-0.037 0.019-0.075 0.038-0.106 0.056-0.037 0.019-0.075 0.044-0.106 0.063-0.037 0.019-0.075 0.044-0.106 0.063-0.037 0.019-0.069 0.044-0.106 0.063s-0.069 0.044-0.106 0.063-0.069 0.044-0.106 0.069c-0.031 0.025-0.069 0.044-0.1 0.069-0.031 0.019-0.069 0.044-0.1 0.069s-0.069 0.044-0.1 0.069c-0.031 0.019-0.063 0.044-0.088 0.063-0.537 0.394-1.031 0.856-1.462 1.375-0.037 0.044-0.075 0.081-0.106 0.125l-0.081 0.1c-0.081 0.1-0.169 0.206-0.244 0.319l-0.013 0.019c-0.044 0.063-0.094 0.144-0.112 0.237s0 0.181 0.013 0.256c0.025 0.112 0.044 0.231 0.063 0.344l0.044 0.256c0.019 0.131 0.044 0.263 0.063 0.388l0.006 0.031c0.025 0.162 0.050 0.325 0.075 0.494l0.013 0.088c0.025 0.162 0.044 0.325 0.063 0.481l0.006 0.075c0.019 0.144 0.031 0.287 0.050 0.438l0.013 0.125c0.013 0.162 0.031 0.331 0.044 0.494 0 0.019 0.006 0.037 0.006 0.056v0.044c0.013 0.163 0.025 0.325 0.037 0.487l0.006 0.063c0.013 0.175 0.025 0.344 0.031 0.512v0.037c0.006 0.162 0.013 0.319 0.019 0.481l0.006 0.287c0.006 0.125 0.006 0.256 0.013 0.381 0 0.162 0.006 0.325 0.006 0.488 0 0.031 0 0.063 0 0.094v0.063c0 0.125 0 0.256 0 0.381v0.15c0 0.162-0.006 0.325-0.013 0.475v0.063c-0.013 0.338-0.025 0.688-0.050 1.031-0.013 0.169-0.025 0.344-0.037 0.512v0.037c-0.019 0.219-0.031 0.444 0.006 0.669 0.050 0.281 0.194 0.55 0.444 0.831 0.094 0.106 0.2 0.213 0.306 0.313 0.406 0.394 0.888 0.756 1.438 1.088 0.294 0.181 0.6 0.344 0.913 0.481 0.094 0.044 0.188 0.081 0.281 0.119 0.206 0.087 0.425 0.163 0.65 0.238 0.238 0.081 0.494 0.15 0.75 0.206 0.219 0.050 0.444 0.087 0.669 0.119 0.219 0.031 0.45 0.056 0.669 0.069 0.213 0.012 0.431 0.019 0.662 0.012h0.181c0.063 0 0.125-0.006 0.181-0.006 0.037-0.006 0.075-0.006 0.119-0.012l0.063-0.006c0.056-0.006 0.106-0.006 0.162-0.012 0.037 0 0.075-0.006 0.113-0.012l0.1-0.012c0.044-0.006 0.088-0.012 0.125-0.019 0.050-0.006 0.106-0.019 0.162-0.025l0.050-0.012c0.044-0.006 0.081-0.012 0.125-0.025 0.050-0.012 0.106-0.019 0.162-0.031s0.119-0.025 0.175-0.038c0.050-0.012 0.094-0.025 0.156-0.038s0.119-0.031 0.175-0.044c0.050-0.012 0.106-0.031 0.156-0.044l0.156-0.044 0.019-0.006c0.044-0.012 0.094-0.031 0.156-0.050l0.012-0.006 0.069 0.119 2.069 4.431c-0.825-0.831-1.9-1.4-3.088-1.594-1.981-0.325-4.013 0.438-5.287 1.994l-0.088 0.106 0.050 0.131c0.713 1.881 2.388 3.256 4.375 3.581 1.137 0.188 2.287 0.012 3.306-0.456 0.694-0.325 1.325-0.788 1.85-1.381l1.419 3.044-1.256 2.113 2.369 0.419 0.488 1.038 0.244 0.525 2.306 0.381-0.244-0.525-1.688-3.613c0.8-0.012 1.581-0.2 2.288-0.531 1.012-0.475 1.887-1.244 2.475-2.238 1.025-1.725 1.056-3.887 0.069-5.644zM26.556 20.656l-1.175 0.337 0.825-1.394c0.156 0.344 0.275 0.7 0.35 1.056zM25.794 19.363l-0.819 1.381-0.262-1.188c0.35-0.1 0.712-0.169 1.081-0.194zM24.256 19.712l0.363 1.631-0.575 0.969-0.519-2.244c0.238-0.137 0.481-0.256 0.731-0.356zM23.1 20.35l0.587 2.556-0.475 0.8-0.663-2.894c0.175-0.163 0.356-0.319 0.55-0.462zM22.156 21.244l0.706 3.063-0.419 0.706-0.725-3.144c0.131-0.225 0.281-0.431 0.438-0.625zM18.65 18.625l-0.631 1.094-0.613-1.319 1.244 0.225zM9.988 1.756c0.031-0.031 0.069-0.063 0.106-0.1 0.037-0.031 0.075-0.063 0.113-0.087 0.037-0.031 0.075-0.056 0.113-0.087 0.037-0.025 0.081-0.056 0.119-0.081s0.081-0.050 0.125-0.075c0.037-0.025 0.081-0.050 0.125-0.069 0.037-0.019 0.075-0.038 0.106-0.056 0.444-0.206 0.938-0.3 1.425-0.269-0.006 0.006-0.019 0.012-0.025 0.025-0.481 0.45-0.925 0.931-1.331 1.444 0 0-0.050-0.025-0.056-0.031-0.019-0.006-0.037-0.019-0.056-0.031-0.037-0.019-0.075-0.038-0.113-0.050-0.037-0.019-0.081-0.031-0.119-0.050-0.037-0.013-0.081-0.025-0.125-0.038s-0.081-0.025-0.125-0.031c-0.044-0.013-0.081-0.019-0.125-0.025s-0.088-0.013-0.131-0.019c-0.044-0.006-0.088-0.006-0.125-0.013-0.044 0-0.088 0-0.131 0-0.019 0-0.044 0-0.063 0h-0.012c0 0 0.006-0.013 0.012-0.013 0.006-0.013 0.012-0.019 0.019-0.031 0.031-0.038 0.063-0.075 0.094-0.113s0.063-0.075 0.094-0.106c0.025-0.025 0.056-0.063 0.088-0.094zM10.569 2.788c-0.075 0.1-0.144 0.2-0.213 0.3l-0.275 0.406c-0.137 0.212-0.269 0.425-0.394 0.644-0.25-0.044-0.5-0.081-0.75-0.112l-0.488-0.050c-0.119-0.013-0.238-0.019-0.363-0.031 0.1-0.438 0.363-0.825 0.744-1.069 0.131-0.087 0.287-0.163 0.438-0.206 0.431-0.138 0.894-0.087 1.3 0.119zM8.544 1.688c0.444-0.206 0.9-0.375 1.363-0.494-0.356 0.288-0.656 0.637-0.875 1.050-0.063 0.019-0.125 0.050-0.188 0.075l-0.019 0.006c-0.063 0.031-0.119 0.056-0.169 0.087-0.456-0.094-0.919-0.094-1.369-0.006 0.394-0.269 0.813-0.512 1.256-0.719zM5.656 3.95c0.031-0.038 0.063-0.075 0.088-0.112 0.269-0.313 0.6-0.563 0.981-0.744 0.45-0.206 0.931-0.3 1.419-0.269-0.281 0.306-0.469 0.681-0.544 1.094-0.013 0-0.025 0-0.037 0-0.456-0.006-0.912 0.006-1.369 0.044l-0.094 0.006c-0.138 0.006-0.281 0.025-0.412 0.044h-0.025l-0.019 0.006c-0.013 0-0.025 0-0.031 0.006 0.006-0.025 0.025-0.050 0.044-0.075zM11.838 17.087c-0.037 0-0.069 0-0.106-0.006h-0.063c-0.044 0-0.088-0.006-0.125-0.006-1.813-0.119-3.575-0.831-4.95-2.006-0.063-0.056-0.125-0.106-0.188-0.169-0.219-0.206-0.425-0.444-0.525-0.731-0.112-0.325-0.088-0.694-0.063-1.050 0.031-0.387 0.050-0.769 0.063-1.156s0.025-0.781 0.025-1.169-0.006-0.781-0.013-1.169c-0.013-0.387-0.031-0.775-0.056-1.162s-0.056-0.775-0.094-1.162-0.081-0.775-0.131-1.162c-0.050-0.388-0.112-0.769-0.175-1.156-0.006-0.037-0.069-0.412-0.075-0.425 1.356-0.194 2.731-0.181 4.081 0.031-0.081 0.156-0.162 0.313-0.238 0.469-0.050 0.106-0.1 0.206-0.144 0.313v0.006l-0.081 0.181c-0.037 0.088-0.075 0.175-0.106 0.263-0.106 0.263-0.206 0.531-0.294 0.787-0.019 0.063-0.044 0.125-0.063 0.181-0.025 0.069-0.044 0.138-0.063 0.206-0.019 0.056-0.037 0.119-0.050 0.169-0.025 0.069-0.044 0.144-0.056 0.206-0.019 0.063-0.031 0.119-0.044 0.175-0.025 0.081-0.044 0.162-0.063 0.237s-0.037 0.144-0.050 0.213v0.013c-0.012 0.037-0.012 0.069-0.025 0.1l-0.019 0.088-0.006 0.019c-0.012 0.050-0.019 0.094-0.031 0.144l-0.019 0.1c-0.025 0.125-0.044 0.256-0.063 0.375l-0.006 0.025c-0.012 0.069-0.025 0.144-0.031 0.219-0.006 0.063-0.019 0.119-0.025 0.181l-0.019 0.156c0 0.012 0 0.019 0 0.031-0.006 0.069-0.013 0.131-0.025 0.194l-0.006 0.044c-0.006 0.019-0.006 0.031-0.006 0.050-0.006 0.063-0.013 0.131-0.019 0.194-0.019 0.206-0.025 0.425-0.037 0.631 0 0.069-0.006 0.144-0.006 0.213 0 0.075 0 0.15 0 0.219 0 0.075 0 0.144 0 0.219 0 0.094 0.006 0.181 0.006 0.275 0.013 0.269 0.031 0.537 0.056 0.806 0 0.031 0.006 0.063 0.006 0.094l0.006 0.088c0.006 0.031 0.013 0.069 0.013 0.106 0.069 0.531 0.219 1.050 0.438 1.525 0.006 0.019 0.012 0.037 0.025 0.056 0.363 0.775 0.881 1.431 1.55 1.956l0.006 0.006c0.037 0.031 0.081 0.063 0.119 0.087l0.019 0.012c0.050 0.038 0.094 0.069 0.144 0.1 0.106 0.075 0.206 0.137 0.3 0.194l0.044 0.025c0.075 0.044 0.156 0.087 0.231 0.125 0.137 0.069 0.275 0.131 0.412 0.194 0.069 0.031 0.137 0.056 0.206 0.081 0.050 0.019 0.1 0.038 0.156 0.050 0.044 0.012 0.088 0.025 0.131 0.044 0.063 0.019 0.125 0.038 0.188 0.050-0.019 0.006-0.044 0.006-0.069 0.006zM14.412 16.606c-0.644 0.15-1.306 0.188-1.963 0.081-0.119-0.019-0.238-0.044-0.356-0.075s-0.238-0.063-0.35-0.1c-0.119-0.038-0.231-0.081-0.344-0.125-0.113-0.050-0.225-0.1-0.331-0.156s-0.219-0.113-0.319-0.175c-0.106-0.063-0.206-0.131-0.306-0.2s-0.194-0.144-0.294-0.219c-0.094-0.081-0.188-0.162-0.275-0.244-0.088-0.088-0.175-0.175-0.256-0.262-0.081-0.094-0.162-0.188-0.238-0.281-0.075-0.1-0.144-0.194-0.213-0.3-0.069-0.1-0.131-0.206-0.188-0.313-0.15-0.3-0.281-0.619-0.375-0.938-0.081-0.275-0.113-0.556-0.156-0.838-0.019-0.131-0.037-0.262-0.050-0.394s-0.025-0.262-0.037-0.394c-0.012-0.131-0.019-0.262-0.025-0.394s-0.006-0.262-0.012-0.394c0-0.131 0-0.262 0-0.394 0.006-0.131 0.006-0.262 0.019-0.394 0.006-0.131 0.019-0.262 0.031-0.394s0.025-0.262 0.044-0.394c0.012-0.131 0.037-0.262 0.056-0.394s0.044-0.262 0.069-0.394c0.025-0.131 0.050-0.262 0.081-0.387 0.031-0.131 0.063-0.256 0.094-0.388 0.031-0.125 0.069-0.256 0.106-0.381s0.075-0.256 0.119-0.381c0.006-0.013 0.006-0.019 0.012-0.031 0.269-0.813 0.619-1.6 1.044-2.35 0.738-1.306 1.688-2.494 2.787-3.519 1.806 2.181 3.894 4.138 6.188 5.8 0.313 0.225 0.637 0.456 0.831 0.794 0.156 0.269 0.212 0.581 0.231 0.894 0.006 0.088 0.006 0.181 0.006 0.269 0.006 2.081-0.8 4.156-2.206 5.688-0.906 1-2.119 1.775-3.425 2.075zM13.613 20.544l1.944 2.575-0.813-0.131-1.894-2.506c0.256 0 0.506 0.025 0.762 0.063zM12.275 20.506l1.787 2.369-0.919-0.15-1.581-2.094c0.231-0.056 0.469-0.1 0.713-0.125zM11.075 20.775l1.387 1.837-1.113-0.181-1.019-1.325c0.238-0.131 0.488-0.238 0.744-0.331zM9.919 21.35l0.744 0.969-1.588-0.262c0.256-0.262 0.537-0.5 0.844-0.706zM8.994 22.531l1.6 0.262-1.019 0.681c-0.225-0.294-0.419-0.606-0.581-0.944zM9.887 23.837l1.394-0.938 1.113 0.181-1.906 1.3c-0.213-0.156-0.412-0.344-0.6-0.544zM10.906 24.681l2.175-1.481 0.919 0.15-2.456 1.675c-0.225-0.1-0.438-0.212-0.637-0.344zM12.081 25.231l2.594-1.775 0.813 0.131-2.669 1.819c-0.25-0.031-0.494-0.094-0.738-0.175zM13.569 25.481l2.6-1.775 1.212 0.2c-0.994 1.031-2.381 1.6-3.813 1.575zM16.238 23.231l-1.9-2.512c1.363 0.431 2.5 1.413 3.125 2.712l-1.225-0.2zM18.9 28.819l0.681-1.181 0.663 1.419-1.344-0.238zM22.719 30.931l-1.169-0.194-6.431-13.788c0.081-0.038 0.169-0.069 0.244-0.106l0.206-0.087 0.119-0.056c0.106-0.050 0.213-0.106 0.319-0.163l6.712 14.394zM21.456 26.675c-0.6-1.313-0.619-2.819-0.075-4.137l0.706 3.069-0.631 1.069zM21.869 26.919l0.625-1.056 3.031-0.85c-0.894 1.106-2.225 1.8-3.656 1.906zM25.956 24.394l-3.106 0.875 0.419-0.706 3.025-0.85c-0.094 0.231-0.206 0.456-0.337 0.681zM26.481 23.163l-2.863 0.8 0.475-0.8 2.531-0.712c-0.031 0.244-0.075 0.475-0.144 0.712zM24.45 22.569l0.575-0.969 1.613-0.462c0.031 0.269 0.044 0.544 0.038 0.813l-2.225 0.619z"></path>
</svg>
